HIERARCHY
ROOT Hips
{
	OFFSET 0.000000 0.000000 0.000000
	CHANNELS 6 Xposition Yposition Zposition Zrotation Yrotation Xrotation 
	JOINT LHipJoint
	{
		OFFSET 0.000000 0.000000 0.000000
		CHANNELS 3 Zrotation Yrotation Xrotation
		JOINT LeftUpLeg
		{
			OFFSET 1.363060 -1.794630 0.839290
			CHANNELS 3 Zrotation Yrotation Xrotation
			JOINT LeftLeg
			{
				OFFSET 2.448110 -6.726130 0.000000
				CHANNELS 3 Zrotation Yrotation Xrotation
				JOINT LeftFoot
				{
					OFFSET 2.562200 -7.039590 0.000000
					CHANNELS 3 Zrotation Yrotation Xrotation
					JOINT LeftToeBase
					{
						OFFSET 0.157640 -0.433110 2.322550
						CHANNELS 3 Zrotation Yrotation Xrotation
						End Site
						{
							OFFSET 0.000000 0.000000 0.000000
						}
					}
				}
			}
		}
	}
	JOINT RHipJoint
	{
		OFFSET 0.000000 0.000000 0.000000
		CHANNELS 3 Zrotation Yrotation Xrotation
		JOINT RightUpLeg
		{
			OFFSET -1.305520 -1.794630 0.839290
			CHANNELS 3 Zrotation Yrotation Xrotation
			JOINT RightLeg
			{
				OFFSET -2.542530 -6.985550 0.000000
				CHANNELS 3 Zrotation Yrotation Xrotation
				JOINT RightFoot
				{
					OFFSET -2.568260 -7.056230 0.000000
					CHANNELS 3 Zrotation Yrotation Xrotation
					JOINT RightToeBase
					{
						OFFSET -0.164730 -0.452590 2.363150
						CHANNELS 3 Zrotation Yrotation Xrotation
						End Site
						{
							OFFSET 0.000000 0.000000 0.000000
						}
					}
				}
			}
		}
	}
	JOINT LowerBack
	{
		OFFSET 0.000000 0.000000 0.000000
		CHANNELS 3 Zrotation Yrotation Xrotation
		JOINT Spine
		{
			OFFSET 0.028270 2.035590 -0.193380
			CHANNELS 3 Zrotation Yrotation Xrotation
			JOINT Spine1
			{
				OFFSET 0.056720 2.048850 -0.042750
				CHANNELS 3 Zrotation Yrotation Xrotation
				JOINT Neck
				{
					OFFSET 0.000000 0.000000 0.000000
					CHANNELS 3 Zrotation Yrotation Xrotation
					JOINT Neck1
					{
						OFFSET -0.054170 1.746240 0.172020
						CHANNELS 3 Zrotation Yrotation Xrotation
						JOINT Head
						{
							OFFSET 0.104070 1.761360 -0.123970
							CHANNELS 3 Zrotation Yrotation Xrotation
							End Site
							{
								OFFSET 0.000000 0.000000 0.000000
							}
						}
					}
				}
				JOINT LeftShoulder
				{
					OFFSET 0.000000 0.000000 0.000000
					CHANNELS 3 Zrotation Yrotation Xrotation
					JOINT LeftArm
					{
						OFFSET 3.362410 1.200890 -0.311210
						CHANNELS 3 Zrotation Yrotation Xrotation
						JOINT LeftForeArm
						{
							OFFSET 4.983000 -0.000000 -0.000000
							CHANNELS 3 Zrotation Yrotation Xrotation
							JOINT LeftHand
							{
								OFFSET 3.483560 -0.000000 -0.000000
								CHANNELS 3 Zrotation Yrotation Xrotation
								JOINT LeftFingerBase
								{
									OFFSET 0.000000 0.000000 0.000000
									CHANNELS 3 Zrotation Yrotation Xrotation
									JOINT LeftHandIndex1
									{
										OFFSET 0.715260 -0.000000 -0.000000
										CHANNELS 3 Zrotation Yrotation Xrotation
										End Site
										{
											OFFSET 0.000000 0.000000 0.000000
										}
									}
								}
								JOINT LThumb
								{
									OFFSET 0.000000 0.000000 0.000000
									CHANNELS 3 Zrotation Yrotation Xrotation
									End Site
									{
										OFFSET 0.000000 0.000000 0.000000
									}
								}
							}
						}
					}
				}
				JOINT RightShoulder
				{
					OFFSET 0.000000 0.000000 0.000000
					CHANNELS 3 Zrotation Yrotation Xrotation
					JOINT RightArm
					{
						OFFSET -3.136600 1.374050 -0.404650
						CHANNELS 3 Zrotation Yrotation Xrotation
						JOINT RightForeArm
						{
							OFFSET -5.241900 -0.000000 -0.000000
							CHANNELS 3 Zrotation Yrotation Xrotation
							JOINT RightHand
							{
								OFFSET -3.444170 -0.000000 -0.000000
								CHANNELS 3 Zrotation Yrotation Xrotation
								JOINT RightFingerBase
								{
									OFFSET 0.000000 0.000000 0.000000
									CHANNELS 3 Zrotation Yrotation Xrotation
									JOINT RightHandIndex1
									{
										OFFSET -0.622530 -0.000000 -0.000000
										CHANNELS 3 Zrotation Yrotation Xrotation
										End Site
										{
											OFFSET 0.000000 0.000000 0.000000
										}
									}
								}
								JOINT RThumb
								{
									OFFSET 0.000000 0.000000 0.000000
									CHANNELS 3 Zrotation Yrotation Xrotation
									End Site
									{
										OFFSET 0.000000 0.000000 0.000000
									}
								}
							}
						}
					}
				}
			}
		}
	}
}
MOTION
Frames: 10
Frame Time: 0.008333
5.325551 16.880951 4.623933 4.684320 26.792449 13.163341 -11.511936 5.989881 -0.842633 -6.717348 23.240017 -1.704259 -1.583747 1.454875 23.901887 0.784252 4.794705 11.179529 1.286801 0.000000 -81.822300 7.724883 -1.088118 5.531048 18.456787 3.944712 -24.854605 2.567976 3.462939 -6.720080 -3.984016 -17.385820 -8.199772 178.228800 -0.000001 -3.379400 3.235945 -5.618110 -6.751351 0.601272 -6.074525 -3.574744 -5.217233 -6.153406 2.696979 9.384626 -17.597561 -9.764100 -3.156596 -0.218844 -0.491755 0.000000 0.000000 0.000000 -1.357098 6.505978 1.298150 -43.839553 -14.282312 -11.929397 -1.778695 -55.907068 -0.042088 10.318164 -1.961073 -0.203368 -0.138631 0.280727 0.000000 0.000000 0.000000 0.000000 0.000000 0.000000 0.000000 16.323588 -17.247634 0.393199 50.722357 -2.002536 -22.831282 2.765246 37.358686 0.005765 -3.638916 4.732423 -0.159125 0.138942 -0.108165 -0.000000 0.000000 0.000000 0.000000 0.000000 0.000000 0.000000 
5.393528 16.899191 4.753550 4.271345 26.234092 12.789349 -11.699499 5.992704 -0.837317 -5.941084 23.337474 -2.168737 -1.398260 1.589540 25.619463 0.821514 4.192719 13.195177 1.170500 0.000000 -82.821700 7.604964 -1.183632 5.446679 19.032511 3.803456 -23.880256 2.710306 3.469127 -7.017613 -3.888316 -16.690069 -7.454801 178.220300 -0.000000 -4.411801 3.629563 -5.561502 -6.694893 0.686515 -6.050453 -3.584255 -5.188024 -6.130681 2.651480 9.287498 -17.467505 -9.706265 -3.167942 -0.220622 -0.476727 0.000000 0.000000 0.000000 -1.528897 6.493743 1.258301 -45.198178 -13.959072 -11.503834 -1.835546 -55.754203 -0.039637 9.995880 -1.944027 -0.194966 -0.136070 0.274844 0.000000 0.000000 0.000000 0.000000 0.000000 0.000000 0.000000 16.183514 -17.084268 0.397002 50.823881 -1.636797 -22.742361 2.755799 37.358774 0.005494 -3.662033 4.701296 -0.159127 0.138312 -0.109690 -0.000000 0.000000 0.000000 0.000000 0.000000 0.000000 0.000000 
5.457716 16.916794 4.882109 3.885546 25.680872 12.431871 -11.863330 5.979679 -0.831536 -5.212796 23.384824 -2.705410 -1.218905 1.716158 27.449023 0.873398 3.506245 15.227836 0.978200 -0.000000 -82.927700 7.486627 -1.277698 5.333703 19.594897 3.657873 -23.251082 2.849558 3.390914 -6.529638 -3.710409 -15.883969 -7.273757 178.289200 0.000000 -5.511800 3.974141 -5.504047 -6.614034 0.759862 -6.021043 -3.588649 -5.164474 -6.102639 2.601365 9.217301 -17.327626 -9.645431 -3.179256 -0.222387 -0.461022 0.000000 0.000000 0.000000 -1.643871 6.461090 1.219090 -46.587716 -13.611665 -11.090166 -1.890533 -55.522961 -0.037328 9.672053 -1.896890 -0.184073 -0.133458 0.268947 0.000000 0.000000 0.000000 0.000000 0.000000 0.000000 0.000000 16.068361 -16.910084 0.400433 50.985419 -1.258672 -22.617151 2.745327 37.381524 0.005243 -3.664667 4.668405 -0.158129 0.137465 -0.111176 -0.000000 0.000000 0.000000 0.000000 0.000000 0.000000 0.000000 
5.517868 16.933306 5.009493 3.542128 25.138587 12.107911 -12.000163 5.948976 -0.826740 -4.558585 23.375454 -3.320601 -1.050466 1.833057 29.379792 0.940912 2.816144 17.181919 0.733799 0.000000 -81.985900 7.384212 -1.361605 5.208880 20.108225 3.493420 -22.726515 2.977484 3.290585 -5.815670 -3.527654 -15.043793 -7.344144 178.417100 0.000000 -6.648101 4.257585 -5.448286 -6.519326 0.818245 -5.987905 -3.588932 -5.147386 -6.070715 2.548683 9.176282 -17.186070 -9.584621 -3.190625 -0.224119 -0.445351 0.000000 0.000000 0.000000 -1.703966 6.406388 1.180732 -47.990970 -13.238874 -10.688703 -1.942535 -55.222258 -0.035186 9.352473 -1.816678 -0.170787 -0.130806 0.263020 0.000000 0.000000 0.000000 0.000000 0.000000 0.000000 0.000000 15.983584 -16.733780 0.403515 51.202916 -0.859785 -22.446191 2.734299 37.427250 0.005020 -3.649870 4.636860 -0.156529 0.136451 -0.112615 -0.000000 0.000000 0.000000 0.000000 0.000000 0.000000 0.000000 
5.574131 16.948426 5.135310 3.240223 24.608912 11.817963 -12.110358 5.899372 -0.827860 -3.979734 23.320894 -4.012240 -0.896388 1.940848 31.400079 1.022038 2.216254 18.955516 0.480300 -0.000000 -79.966199 7.299531 -1.432508 5.080971 20.563748 3.321392 -22.223297 3.089236 3.189950 -5.068680 -3.365805 -14.234122 -7.553117 178.580300 -0.000000 -7.779000 4.483081 -5.394280 -6.411950 0.861925 -5.951341 -3.585238 -5.138002 -6.035121 2.493924 9.163192 -17.040021 -9.525372 -3.202571 -0.225839 -0.430151 0.000000 0.000000 0.000000 -1.718081 6.336980 1.144626 -49.391336 -12.852176 -10.297001 -1.991515 -54.855798 -0.033230 9.043093 -1.703980 -0.155609 -0.128154 0.257075 0.000000 0.000000 0.000000 0.000000 0.000000 0.000000 0.000000 15.930539 -16.551748 0.406224 51.470443 -0.442923 -22.225005 2.722377 37.502647 0.004827 -3.620934 4.608952 -0.154331 0.135277 -0.114015 -0.000000 0.000000 0.000000 0.000000 0.000000 0.000000 0.000000 
5.626561 16.961955 5.259445 2.980664 24.092158 11.566793 -12.193325 5.831641 -0.837339 -3.483048 23.229509 -4.783807 -0.758242 2.041809 33.495368 1.113448 1.819485 20.450813 0.281299 -0.000000 -76.950100 7.232273 -1.490117 4.957844 20.955916 3.160743 -21.731360 3.181339 3.095010 -4.338201 -3.231396 -13.503978 -7.863011 178.757500 -0.000000 -8.859200 4.651985 -5.342163 -6.297863 0.891115 -5.911813 -3.578571 -5.137372 -5.996283 2.438207 9.177018 -16.890340 -9.469513 -3.215786 -0.227587 -0.415896 0.000000 0.000000 0.000000 -1.695819 6.258370 1.111835 -50.771067 -12.455772 -9.911666 -2.037440 -54.432552 -0.031453 8.747188 -1.560936 -0.138936 -0.125528 0.251075 0.000000 0.000000 0.000000 0.000000 0.000000 0.000000 0.000000 15.912376 -16.364364 0.408187 51.781151 -0.006140 -21.947935 2.709631 37.608411 0.004664 -3.582033 4.587480 -0.152031 0.133971 -0.115378 -0.000000 0.000000 0.000000 0.000000 0.000000 0.000000 0.000000 
5.675460 16.973874 5.381683 2.756593 23.586698 11.349772 -12.251772 5.746555 -0.858983 -3.060024 23.115576 -5.629566 -0.634752 2.139287 35.644124 1.212411 1.733056 21.596912 0.205100 -0.000000 -73.198000 7.179294 -1.535063 4.843600 21.291815 3.024272 -21.233433 3.253412 3.010841 -3.669569 -3.127136 -12.886438 -8.232690 178.932500 0.000000 -9.854000 4.773684 -5.291003 -6.176535 0.907523 -5.869198 -3.569111 -5.146783 -5.954033 2.381573 9.214370 -16.727705 -9.416921 -3.231391 -0.229451 -0.402636 0.000000 0.000000 0.000000 -1.650267 6.182538 1.084147 -52.115191 -12.062952 -9.527839 -2.081172 -53.955643 -0.029844 8.467599 -1.393846 -0.121469 -0.122988 0.245020 0.000000 0.000000 0.000000 0.000000 0.000000 0.000000 0.000000 15.929387 -16.160954 0.408937 52.128181 0.441870 -21.615240 2.695511 37.750604 0.004528 -3.536081 4.573741 -0.149730 0.132517 -0.116708 -0.000000 0.000000 0.000000 0.000000 0.000000 0.000000 0.000000 
5.720929 16.984318 5.502162 2.567993 23.090634 11.171619 -12.286510 5.646226 -0.892163 -2.715854 22.981159 -6.551548 -0.523211 2.236392 37.824446 1.317552 2.047383 22.342974 0.311600 -0.000000 -68.959000 7.139968 -1.567976 4.744299 21.570882 2.924344 -20.727656 3.305479 2.941233 -3.096350 -3.053149 -12.398602 -8.626082 179.094700 0.000000 -10.737900 4.850329 -5.240931 -6.055855 0.911921 -5.824134 -3.558050 -5.166073 -5.909028 2.326323 9.272438 -16.560178 -9.369836 -3.249525 -0.231426 -0.390939 0.000000 0.000000 0.000000 -1.593961 6.113478 1.061677 -53.407126 -11.670080 -9.141817 -2.122803 -53.438248 -0.028372 8.204720 -1.209387 -0.103805 -0.120536 0.238838 0.000000 0.000000 0.000000 0.000000 0.000000 0.000000 0.000000 15.981895 -15.950081 0.407970 52.505094 0.917770 -21.221505 2.680727 37.915097 0.004420 -3.489216 4.572605 -0.147728 0.130978 -0.118035 -0.000000 0.000000 0.000000 0.000000 0.000000 0.000000 0.000000 
5.763123 16.993507 5.620964 2.411301 22.599916 11.030413 -12.300006 5.532266 -0.935784 -2.446939 22.826657 -7.542157 -0.420157 2.335118 40.007387 1.429927 2.813472 22.670777 0.633800 -0.000000 -64.535800 7.112636 -1.590021 4.661355 21.799676 2.863767 -20.209884 3.339761 2.887737 -2.637427 -3.005752 -12.037604 -9.012820 179.238599 0.000000 -11.502200 4.887698 -5.191300 -5.938359 0.905637 -5.776592 -3.545917 -5.195271 -5.861251 2.273467 9.347239 -16.386205 -9.328195 -3.270784 -0.233564 -0.380822 0.000000 0.000000 0.000000 -1.539101 6.058772 1.044968 -54.634472 -11.279749 -8.750344 -2.163032 -52.887261 -0.027000 7.958919 -1.017285 -0.086643 -0.118199 0.232498 0.000000 0.000000 0.000000 0.000000 0.000000 0.000000 0.000000 16.068776 -15.729925 0.404673 52.906885 1.425190 -20.766087 2.665405 38.094671 0.004340 -3.445814 4.586556 -0.146325 0.129378 -0.119377 -0.000000 0.000000 0.000000 0.000000 0.000000 0.000000 0.000000 
5.802245 17.001781 5.738172 2.282774 22.110071 10.923019 -12.294656 5.405977 -0.986739 -2.249778 22.645392 -8.588358 -0.322581 2.435563 42.156854 1.553099 4.040526 22.595174 1.172200 -0.000000 -60.306100 7.096235 -1.602394 4.593912 21.984164 2.840286 -19.679439 3.359323 2.850015 -2.297970 -2.978857 -11.785834 -9.370100 179.362500 0.000000 -12.152600 4.890442 -5.141230 -5.825867 0.889643 -5.726196 -3.533322 -5.234629 -5.810343 2.223032 9.434812 -16.197210 -9.289921 -3.296129 -0.235970 -0.371769 0.000000 0.000000 0.000000 -1.494686 6.026582 1.034724 -55.788837 -10.895535 -8.350354 -2.202843 -52.305020 -0.025705 7.730063 -0.828654 -0.070783 -0.116012 0.225995 0.000000 0.000000 0.000000 0.000000 0.000000 0.000000 0.000000 16.188821 -15.490994 0.398298 53.330468 1.955804 -20.253894 2.649280 38.288009 0.004278 -3.407088 4.615191 -0.145620 0.127702 -0.120736 -0.000000 0.000000 0.000000 0.000000 0.000000 0.000000 0.000000 
